<?xml version="1.0" encoding="utf-8"?>
<!-- Generator: Adobe Illustrator 26.4.1, SVG Export Plug-In . SVG Version: 6.00 Build 0)  -->
<svg version="1.1" id="Layer_1" xmlns="http://www.w3.org/2000/svg" xmlns:xlink="http://www.w3.org/1999/xlink" x="0px" y="0px"
	 viewBox="0 0 796.29 264.72" style="enable-background:new 0 0 796.29 264.72;" xml:space="preserve">
<style type="text/css">
	.st0{fill:#E54E4D;}
	.st1{clip-path:url(#SVGID_00000181078611717374044660000002506315703314517391_);fill:none;stroke:#000000;stroke-width:5.3386;}
	.st2{fill:none;stroke:#000000;stroke-width:2;}
	.st3{fill:#010101;}
	.st4{fill:#DF4443;}
</style>
<g>
	<path d="M45.11,137.97l-6.13-2.88c-0.8,1.76-1.68,3.48-2.64,5.16c-0.96,1.68-2.2,3.2-3.72,4.56c-0.32,0.32-0.66,0.6-1.02,0.84
		c-0.36,0.24-0.7,0.48-1.02,0.72c-0.64,0.4-1.26,0.72-1.86,0.96c-0.6,0.24-1.14,0.36-1.62,0.36c-0.56,0-1-0.14-1.32-0.42
		c-0.32-0.28-0.48-0.78-0.48-1.5c0-0.4,0.06-0.86,0.18-1.38c0.12-0.52,0.26-1.06,0.42-1.62c0.64-1.68,1.24-3.38,1.8-5.1
		c0.56-1.72,1.16-3.46,1.8-5.23c0.56-1.76,1.14-3.5,1.74-5.22c0.6-1.72,1.18-3.42,1.74-5.1h6.37l2.16-5.77h-6.49
		c0.48-1.44,0.98-2.9,1.5-4.38c0.52-1.48,1.02-2.94,1.5-4.38c0.48-1.44,0.98-2.88,1.5-4.32c0.52-1.44,1.02-2.88,1.5-4.32
		c-1.28,0.16-2.6,0.34-3.96,0.54c-1.36,0.2-2.68,0.38-3.96,0.54c-2.64,0.4-5.29,0.78-7.93,1.14c-2.64,0.36-5.29,0.74-7.93,1.14
		c-0.4,1.2-0.8,2.38-1.2,3.54c-0.4,1.16-0.8,2.3-1.2,3.42c-0.48,1.2-0.92,2.38-1.32,3.54c-0.4,1.16-0.8,2.34-1.2,3.54H7.15
		l-2.04,5.77h5.17c-0.48,1.28-0.94,2.56-1.38,3.84c-0.44,1.28-0.86,2.56-1.26,3.84c-0.4,1.36-0.82,2.68-1.26,3.96
		c-0.44,1.28-0.9,2.56-1.38,3.84c-0.32,1.04-0.62,2.12-0.9,3.24c-0.28,1.12-0.5,2.24-0.66,3.36c-0.08,0.4-0.14,0.78-0.18,1.14
		c-0.04,0.36-0.06,0.74-0.06,1.14c0,1.44,0.18,2.84,0.54,4.21c0.36,1.36,0.94,2.64,1.74,3.84c1.28,1.92,2.94,3.28,4.98,4.08
		c2.04,0.8,4.18,1.24,6.43,1.32c0.08,0,0.18,0,0.3,0s0.26,0,0.42,0c3.6,0,6.79-0.52,9.55-1.56c2.76-1.04,5.14-2.44,7.15-4.2
		c2.16-1.92,4-4.08,5.53-6.49c1.52-2.4,2.92-4.88,4.2-7.45c0.16-0.4,0.34-0.78,0.54-1.14C44.76,138.75,44.94,138.37,45.11,137.97
		L45.11,137.97L45.11,137.97z M79.34,137.92c-0.72-0.4-1.42-0.74-2.1-1.02c-0.68-0.28-1.34-0.58-1.98-0.9
		c-0.32-0.16-0.66-0.32-1.02-0.48c-0.36-0.16-0.7-0.32-1.02-0.48c-0.8,1.77-1.66,3.45-2.58,5.06c-0.92,1.61-2.1,3.14-3.54,4.58
		c-1.04,0.96-2.04,1.71-3,2.23c-0.96,0.52-1.76,0.78-2.4,0.78c-0.88,0.08-1.5-0.04-1.86-0.36c-0.36-0.32-0.54-0.72-0.54-1.21
		c0-0.48,0.08-1.02,0.24-1.63c0.16-0.6,0.36-1.18,0.6-1.75c0.96-2.97,1.94-5.92,2.94-8.86c1-2.93,2.02-5.84,3.06-8.74
		c0.48-1.45,0.98-2.91,1.5-4.4c0.52-1.49,1.02-2.95,1.5-4.4c-1.92,0-3.86,0-5.83,0c-1.96,0-3.95,0-5.95,0c-2,0-3.98,0-5.95,0
		c-1.96,0-3.9,0-5.83,0c-1.28,3.69-2.54,7.37-3.78,11.02c-1.24,3.65-2.5,7.33-3.78,11.02c-0.16,0.48-0.3,0.94-0.42,1.39
		c-0.12,0.44-0.26,0.9-0.42,1.39c-0.24,0.96-0.42,1.91-0.54,2.83c-0.12,0.92-0.18,1.83-0.18,2.71c0,2.65,0.64,5.08,1.92,7.29
		c1.28,2.21,3.44,3.83,6.49,4.88c1.12,0.4,2.28,0.68,3.48,0.84c1.2,0.16,2.4,0.24,3.6,0.24c0.16,0,0.34,0,0.54,0
		c0.2,0,0.38,0,0.54,0c2.88-0.16,5.66-0.72,8.35-1.68c2.68-0.96,5.02-2.32,7.03-4.08c2.16-1.93,4-4.1,5.53-6.51
		c1.52-2.41,2.92-4.9,4.2-7.47c0.24-0.4,0.46-0.78,0.66-1.14C79,138.7,79.18,138.32,79.34,137.92L79.34,137.92L79.34,137.92z
		 M73.57,105.54c0.08-0.32,0.14-0.62,0.18-0.9c0.04-0.28,0.06-0.54,0.06-0.78c0-1.84-0.7-3.4-2.1-4.68c-1.4-1.28-2.94-2.28-4.62-3
		c-0.16-0.08-0.36-0.16-0.6-0.24c-0.24-0.08-0.48-0.16-0.72-0.24c-0.8-0.24-1.64-0.42-2.52-0.54c-0.88-0.12-1.76-0.18-2.64-0.18
		c-0.24,0-0.46,0-0.66,0c-0.2,0-0.42,0-0.66,0c-1.92,0.16-3.78,0.6-5.59,1.32s-3.26,1.8-4.38,3.24c-0.4,0.56-0.72,1.16-0.96,1.8
		c-0.24,0.64-0.36,1.28-0.36,1.92c0,1.12,0.3,2.22,0.9,3.3c0.6,1.08,1.42,2.02,2.46,2.82c1.36,1.04,2.92,1.78,4.68,2.22
		c1.76,0.44,3.52,0.66,5.29,0.66c0.64,0,1.3-0.04,1.98-0.12c0.68-0.08,1.34-0.16,1.98-0.24c0.24-0.08,0.48-0.14,0.72-0.18
		c0.24-0.04,0.52-0.1,0.84-0.18c1.44-0.48,2.8-1.22,4.08-2.22C72.21,108.32,73.09,107.06,73.57,105.54L73.57,105.54L73.57,105.54z
		 M115.01,137.85c-0.32-4.24-0.62-8.51-0.9-12.79c-0.28-4.28-0.54-8.55-0.78-12.79l-22.7,5.77l-10.69,14.89
		c-0.24-0.08-0.46-0.14-0.66-0.18c-0.2-0.04-0.38-0.06-0.54-0.06c-0.16,0-0.34,0-0.54,0c-0.2,0-0.42,0-0.66,0
		c-2-0.08-3.84,0.46-5.53,1.62c-1.68,1.16-2.8,2.78-3.36,4.86c-0.24,0.88-0.42,1.76-0.54,2.64c-0.12,0.88-0.18,1.76-0.18,2.64
		c0,1.6,0.26,3.17,0.78,4.69c0.52,1.52,1.34,2.96,2.46,4.32c1.6,1.68,3.5,2.96,5.71,3.84c2.2,0.88,4.46,1.44,6.79,1.68
		c0.88,0.16,1.76,0.26,2.64,0.3c0.88,0.04,1.72,0.06,2.52,0.06c0.64,0,1.3-0.02,1.98-0.06c0.68-0.04,1.38-0.1,2.1-0.18
		c5.68-0.56,10.89-2.58,15.61-6.07C113.25,149.56,115.41,144.5,115.01,137.85L115.01,137.85L115.01,137.85z M92.79,127.28
		c0,2.4,0,4.83,0,7.27c0,2.44-0.04,4.91-0.12,7.39c0,3.44-0.98,6.05-2.94,7.81c-1.96,1.76-4.59,2.64-7.87,2.64
		c-1.04,0-2-0.3-2.88-0.9c-0.88-0.6-1.6-1.3-2.16-2.1c0.08,0,0.18,0.02,0.3,0.06c0.12,0.04,0.22,0.06,0.3,0.06c0.08,0,0.18,0,0.3,0
		s0.22,0,0.3,0c1.44,0,2.84-0.34,4.2-1.02c1.36-0.68,2.44-1.62,3.24-2.82c0.48-0.64,0.84-1.32,1.08-2.04
		c0.24-0.72,0.36-1.48,0.36-2.28c0-0.8-0.1-1.58-0.3-2.34c-0.2-0.76-0.54-1.46-1.02-2.1L92.79,127.28L92.79,127.28L92.79,127.28z
		 M181.92,137.85l-5.65-2.52c-2.48,5.04-5.65,9.27-9.49,12.67c-3.84,3.4-8.85,5.11-15.01,5.11c-3.68,0-6.33-1.14-7.93-3.42
		c-1.6-2.28-2.44-4.99-2.52-8.11c0-0.72,0.04-1.48,0.12-2.28c0.08-0.8,0.2-1.56,0.36-2.28c0.72-3.44,2.1-6.67,4.14-9.67
		s4.46-4.98,7.27-5.95c0.24-0.08,0.46-0.16,0.66-0.24c0.2-0.08,0.42-0.12,0.66-0.12c0.24-0.08,0.46-0.12,0.66-0.12
		c0.2,0,0.42,0,0.66,0c0.56-0.08,1.08-0.06,1.56,0.06c0.48,0.12,0.96,0.26,1.44,0.42c-1.76,0.48-3.24,1.4-4.44,2.76
		c-1.2,1.36-1.8,2.96-1.8,4.8c0,0.08,0,0.16,0,0.24c0,0.08,0.04,0.16,0.12,0.24c0,0.16,0,0.28,0,0.36c0,0.08,0,0.16,0,0.24
		c0.16,1.12,0.56,2.18,1.2,3.18c0.64,1,1.48,1.82,2.52,2.46c0.64,0.4,1.34,0.74,2.1,1.02c0.76,0.28,1.5,0.46,2.22,0.54
		c0.24,0.08,0.46,0.12,0.66,0.12c0.2,0,0.38,0,0.54,0c1.36,0,2.64-0.24,3.84-0.72c1.2-0.48,2.24-1.24,3.12-2.28
		c0.72-0.8,1.26-1.72,1.62-2.76c0.36-1.04,0.54-2.08,0.54-3.12c0-0.16,0-0.3,0-0.42c0-0.12,0-0.26,0-0.42
		c-0.16-1.44-0.56-2.82-1.2-4.14c-0.64-1.32-1.44-2.46-2.4-3.42c-2-1.76-4.37-3-7.09-3.72c-2.72-0.72-5.61-1.08-8.65-1.08
		c-0.4,0-0.8,0-1.2,0c-0.4,0-0.84,0.04-1.32,0.12c-3.52,0.16-6.97,0.7-10.33,1.62c-3.36,0.92-6.21,2.02-8.53,3.3
		c-3.53,2-6.41,4.67-8.65,7.99c-2.24,3.32-3.36,6.83-3.36,10.51c0,1.92,0.34,3.83,1.02,5.71c0.68,1.88,1.74,3.74,3.18,5.59
		c2.72,3.44,6.22,5.95,10.51,7.51c4.28,1.56,8.75,2.46,13.39,2.7c0.24,0,0.5,0,0.78,0c0.28,0,0.54,0,0.78,0
		c3.12,0,6.19-0.3,9.19-0.9c3-0.6,5.75-1.46,8.23-2.58c4.16-2,7.37-4.46,9.61-7.39c2.24-2.92,4.28-6.27,6.13-10.03
		c0.08-0.24,0.18-0.5,0.3-0.78C181.62,138.35,181.76,138.09,181.92,137.85L181.92,137.85L181.92,137.85z M247.86,137.97l-6.01-2.88
		c-0.08,0.16-0.16,0.32-0.24,0.48c-0.08,0.16-0.16,0.32-0.24,0.48c-0.08,0.24-0.16,0.44-0.24,0.6c-0.08,0.16-0.16,0.32-0.24,0.48
		c-0.24,0.64-0.6,1.36-1.08,2.16c-0.48,0.8-1,1.6-1.56,2.4c-0.88,1.12-1.84,2.2-2.88,3.24c-1.04,1.04-2.12,1.84-3.24,2.4
		c-0.4,0.24-0.8,0.42-1.2,0.54c-0.4,0.12-0.8,0.18-1.2,0.18c-0.56,0-0.94-0.14-1.14-0.42c-0.2-0.28-0.3-0.62-0.3-1.02
		c0-0.16,0.02-0.36,0.06-0.6c0.04-0.24,0.06-0.44,0.06-0.6c0.08-0.32,0.16-0.6,0.24-0.84c0.08-0.24,0.16-0.48,0.24-0.72
		c0.08-0.24,0.16-0.44,0.24-0.6c0.08-0.16,0.16-0.32,0.24-0.48c0.24-0.88,0.5-1.74,0.78-2.58c0.28-0.84,0.58-1.66,0.9-2.46
		c0.32-0.88,0.62-1.74,0.9-2.58c0.28-0.84,0.54-1.66,0.78-2.46c0.32-0.8,0.54-1.58,0.66-2.34c0.12-0.76,0.18-1.54,0.18-2.34
		c0-1.36-0.22-2.7-0.66-4.02c-0.44-1.32-1.18-2.54-2.22-3.66c-1.52-1.76-3.36-3-5.53-3.72c-2.16-0.72-4.4-1.12-6.73-1.2
		c-0.4,0-0.82,0.02-1.26,0.06c-0.44,0.04-0.86,0.06-1.26,0.06c-2.16,0.24-4.26,0.7-6.31,1.38c-2.04,0.68-3.9,1.46-5.59,2.34
		l9.13-26.43h-23.06l-22.7,66.07h22.94c0.56-1.6,1.1-3.18,1.62-4.74c0.52-1.56,1.06-3.14,1.62-4.74c0.8-2.32,1.6-4.66,2.4-7.03
		c0.8-2.36,1.64-4.7,2.52-7.03c0.16-0.56,0.42-1.18,0.78-1.86c0.36-0.68,0.78-1.42,1.26-2.22c0.88-1.44,1.96-2.78,3.24-4.02
		c1.28-1.24,2.64-1.86,4.08-1.86c0.72,0,1.22,0.22,1.5,0.66c0.28,0.44,0.42,1.02,0.42,1.74c0,0.48-0.06,1.02-0.18,1.62
		c-0.12,0.6-0.26,1.18-0.42,1.74c-0.08,0.4-0.18,0.8-0.3,1.2c-0.12,0.4-0.26,0.76-0.42,1.08c-0.24,0.72-0.48,1.36-0.72,1.92
		c-0.24,0.56-0.4,0.96-0.48,1.2c-0.56,1.36-1.08,2.84-1.56,4.44c-0.48,1.6-0.8,3.2-0.96,4.8c-0.08,0.32-0.12,0.64-0.12,0.96
		c0,0.32,0,0.64,0,0.96c0,1.28,0.16,2.52,0.48,3.72c0.32,1.2,0.88,2.36,1.68,3.48c1.2,1.6,2.68,2.76,4.44,3.48
		c1.76,0.72,3.6,1.2,5.53,1.44c0.48,0,0.98,0.02,1.5,0.06c0.52,0.04,1.02,0.06,1.5,0.06c7.53,0,13.37-2.14,17.54-6.43
		C241.45,149.24,244.98,144.06,247.86,137.97L247.86,137.97L247.86,137.97z M546.1,137.85l-6.25-2.76
		c-0.24,0.64-0.48,1.28-0.72,1.92c-0.24,0.64-0.52,1.28-0.84,1.92c-0.88,2-1.96,3.9-3.24,5.71c-1.28,1.8-2.96,3.02-5.04,3.66
		c-0.32,0.08-0.66,0.16-1.02,0.24c-0.36,0.08-0.74,0.12-1.14,0.12c-0.24,0-0.48,0-0.72,0c-0.24,0-0.44-0.04-0.6-0.12
		c-1.84-0.4-3.14-1.28-3.9-2.64c-0.76-1.36-1.14-2.88-1.14-4.56c0-0.48,0.02-0.96,0.06-1.44c0.04-0.48,0.1-0.92,0.18-1.32
		c0.56-0.16,1.12-0.34,1.68-0.54c0.56-0.2,1.12-0.42,1.68-0.66c2.48-1.12,4.78-2.66,6.91-4.63c2.12-1.96,3.18-4.38,3.18-7.27
		c0-2.32-0.8-4.22-2.4-5.71c-1.6-1.48-3.44-2.54-5.53-3.18c-1.28-0.48-2.64-0.84-4.08-1.08c-1.44-0.24-2.92-0.36-4.44-0.36
		c-0.32,0-0.64,0-0.96,0c-0.32,0-0.64,0.04-0.96,0.12c-2.24,0.08-4.49,0.46-6.73,1.14c-2.24,0.68-4.33,1.58-6.25,2.7l9.01-26.31
		h-22.94l-22.7,66.07h22.94l7.69-22.1c0.16-0.48,0.34-0.96,0.54-1.44c0.2-0.48,0.42-0.96,0.66-1.44c1.12-2.16,2.58-4.18,4.38-6.07
		c1.8-1.88,3.86-3.02,6.19-3.42c0.08,0,0.16,0,0.24,0c0.08,0,0.16-0.04,0.24-0.12c0.08,0,0.16,0,0.24,0c0.08,0,0.16,0,0.24,0
		c0.88,0,1.56,0.22,2.04,0.66c0.48,0.44,0.76,1.02,0.84,1.74c0,0.32-0.06,0.7-0.18,1.14c-0.12,0.44-0.34,0.9-0.66,1.38
		c-1.04,1.6-2.4,2.88-4.08,3.84c-1.68,0.96-3.44,1.8-5.28,2.52c-0.64,0.24-1.3,0.48-1.98,0.72c-0.68,0.24-1.34,0.48-1.98,0.72
		c-0.08,0.08-0.18,0.14-0.3,0.18c-0.12,0.04-0.22,0.06-0.3,0.06c0,0.8,0.04,1.64,0.12,2.52c0.08,0.88,0.16,1.76,0.24,2.64
		c0.32,2.4,0.86,4.73,1.62,6.97c0.76,2.24,2.02,4.25,3.78,6.01c1.68,1.68,3.64,2.86,5.89,3.54c2.24,0.68,4.72,1.02,7.45,1.02
		c3.84,0,7.21-0.48,10.09-1.44c2.88-0.96,5.4-2.32,7.57-4.08c2.64-2.16,4.76-4.7,6.37-7.63
		C543.38,143.87,544.82,140.89,546.1,137.85L546.1,137.85L546.1,137.85z M615.53,138.09l-6.49-2.88c-0.56,0.96-1.08,1.82-1.56,2.58
		c-0.48,0.76-0.96,1.38-1.44,1.86c-0.8,0.96-1.62,1.66-2.46,2.1c-0.84,0.44-1.82,0.74-2.94,0.9c0.32-0.96,0.56-1.92,0.72-2.88
		c0.16-0.96,0.24-1.92,0.24-2.88c0-2.64-0.56-5.18-1.68-7.63c-1.12-2.44-2.76-4.62-4.93-6.55c-2.48-2.32-5.36-4.06-8.65-5.23
		c-3.29-1.16-6.65-1.9-10.09-2.22c-0.64,0-1.26-0.02-1.86-0.06c-0.6-0.04-1.22-0.06-1.86-0.06c-4.24,0-8.37,0.6-12.37,1.8
		c-4.01,1.2-7.61,2.84-10.81,4.92c-3.69,2.4-6.65,5.33-8.89,8.77c-2.24,3.44-3.36,7.05-3.36,10.81c0,2.4,0.52,4.78,1.56,7.15
		c1.04,2.36,2.72,4.58,5.04,6.67c2.88,2.48,6.25,4.34,10.09,5.59c3.84,1.24,7.85,1.86,12.01,1.86c0.4,0,0.78,0,1.14,0
		c0.36,0,0.7,0,1.02,0c4.4-0.24,8.71-1.08,12.91-2.52c4.2-1.44,7.87-3.44,10.99-6.01c0.96,0.56,1.98,1.02,3.06,1.38
		c1.08,0.36,2.22,0.54,3.42,0.54c2.96,0,5.54-1.1,7.75-3.3c2.2-2.2,4.06-4.63,5.59-7.27c0.8-1.36,1.52-2.7,2.16-4.02
		C614.49,140.19,615.05,139.05,615.53,138.09L615.53,138.09L615.53,138.09z M581.3,128.12c-2.4,0.64-4.38,2.02-5.95,4.15
		c-1.56,2.12-2.46,4.38-2.7,6.79c0,0.08,0,0.2,0,0.36c0,0.16,0,0.32,0,0.48c0,1.52,0.34,2.94,1.02,4.26
		c0.68,1.32,1.66,2.42,2.94,3.3c-0.16,0.4-0.36,0.78-0.6,1.14c-0.24,0.36-0.48,0.74-0.72,1.14c-0.96,1.76-2.22,3.34-3.78,4.74
		c-1.56,1.4-3.34,2.1-5.35,2.1c-1.28,0-2.22-0.54-2.82-1.62c-0.6-1.08-1.02-2.3-1.26-3.66c-0.16-0.72-0.26-1.44-0.3-2.16
		c-0.04-0.72-0.06-1.32-0.06-1.8c0-0.88,0.04-1.78,0.12-2.7c0.08-0.92,0.16-1.86,0.24-2.82c0.48-2.88,1.28-5.71,2.4-8.47
		c1.12-2.76,2.6-5.23,4.44-7.39c0.4-0.4,0.78-0.8,1.14-1.2c0.36-0.4,0.74-0.76,1.14-1.08c0.96-0.8,1.92-1.42,2.88-1.86
		c0.96-0.44,1.84-0.66,2.64-0.66c1.28,0,2.34,0.54,3.18,1.62C580.76,123.85,581.22,125.64,581.3,128.12L581.3,128.12L581.3,128.12z
		 M571.57,105.9c0-0.8-0.14-1.52-0.42-2.16c-0.28-0.64-0.7-1.2-1.26-1.68c-0.64-0.48-1.4-0.84-2.28-1.08
		c-0.88-0.24-1.8-0.36-2.76-0.36c-1.76,0-3.41,0.42-4.93,1.26c-1.52,0.84-2.28,2.18-2.28,4.02c0,2,0.66,3.4,1.98,4.2
		c1.32,0.8,2.86,1.2,4.62,1.2c0.16,0,0.32,0,0.48,0c0.16,0,0.32,0,0.48,0c1.6-0.16,3.06-0.66,4.39-1.5
		C570.91,108.96,571.57,107.66,571.57,105.9L571.57,105.9L571.57,105.9z M587.78,105.9c0-0.8-0.14-1.52-0.42-2.16
		c-0.28-0.64-0.74-1.2-1.38-1.68c-0.64-0.48-1.4-0.84-2.28-1.08c-0.88-0.24-1.8-0.36-2.76-0.36c-1.76,0-3.36,0.42-4.8,1.26
		c-1.44,0.84-2.16,2.18-2.16,4.02c0,2,0.64,3.4,1.92,4.2c1.28,0.8,2.8,1.2,4.56,1.2c0.16,0,0.32,0,0.48,0c0.16,0,0.32,0,0.48,0
		c1.6-0.16,3.06-0.66,4.38-1.5C587.12,108.96,587.78,107.66,587.78,105.9L587.78,105.9L587.78,105.9z M686.28,137.97l-6-2.88
		c-0.08,0.16-0.16,0.32-0.24,0.48c-0.08,0.16-0.12,0.32-0.12,0.48c-0.08,0.24-0.16,0.44-0.24,0.6c-0.08,0.16-0.16,0.32-0.24,0.48
		c-0.24,0.64-0.6,1.36-1.08,2.16c-0.48,0.8-1.04,1.6-1.68,2.4c-0.8,1.04-1.7,2.06-2.7,3.06c-1,1-1.98,1.82-2.94,2.46
		c-0.48,0.24-0.94,0.44-1.38,0.6c-0.44,0.16-0.9,0.24-1.38,0.24c-0.56,0-0.96-0.14-1.2-0.42c-0.24-0.28-0.36-0.62-0.36-1.02
		c0-0.16,0.02-0.36,0.06-0.6c0.04-0.24,0.1-0.44,0.18-0.6c0-0.24,0.04-0.46,0.12-0.66c0.08-0.2,0.16-0.38,0.24-0.54
		c0.08-0.32,0.16-0.6,0.24-0.84c0.08-0.24,0.16-0.44,0.24-0.6c0.24-0.88,0.52-1.74,0.84-2.58c0.32-0.84,0.64-1.66,0.96-2.46
		c0.24-0.88,0.52-1.74,0.84-2.58c0.32-0.84,0.6-1.66,0.84-2.46c0.16-0.4,0.28-0.78,0.36-1.14c0.08-0.36,0.16-0.74,0.24-1.14
		c0.08-0.32,0.14-0.68,0.18-1.08c0.04-0.4,0.06-0.76,0.06-1.08c0-1.44-0.24-2.84-0.72-4.2c-0.48-1.36-1.24-2.6-2.28-3.72
		c-1.6-1.76-3.47-3.02-5.59-3.78c-2.12-0.76-4.35-1.14-6.67-1.14c-0.4,0-0.8,0-1.2,0c-0.4,0-0.8,0.04-1.2,0.12
		c-2.4,0.24-4.74,0.74-7.03,1.5c-2.28,0.76-4.35,1.66-6.19,2.7c0.08-0.24,0.16-0.48,0.24-0.72c0.08-0.24,0.2-0.52,0.36-0.84
		c0.08-0.24,0.16-0.48,0.24-0.72c0.08-0.24,0.16-0.48,0.24-0.72h-22.34c-2.48,7.05-4.92,14.08-7.33,21.08
		c-2.4,7.01-4.8,14.04-7.21,21.08h22.34c0.08-0.24,0.16-0.46,0.24-0.66c0.08-0.2,0.16-0.38,0.24-0.54c0.48-1.44,0.96-2.9,1.44-4.38
		c0.48-1.48,0.96-2.98,1.44-4.5c1.2-3.28,2.48-6.51,3.84-9.67c1.36-3.16,3-6.1,4.92-8.83c1.36-1.84,2.56-3.14,3.6-3.9
		c1.04-0.76,1.96-1.14,2.76-1.14c0.64,0,1.1,0.22,1.38,0.66c0.28,0.44,0.42,0.98,0.42,1.62c0,0.48-0.06,1.02-0.18,1.62
		c-0.12,0.6-0.26,1.22-0.42,1.86c-0.16,0.4-0.3,0.78-0.42,1.14c-0.12,0.36-0.22,0.74-0.3,1.14c-0.32,0.72-0.6,1.36-0.84,1.92
		c-0.24,0.56-0.4,0.96-0.48,1.2c-0.4,1.12-0.82,2.32-1.26,3.6c-0.44,1.28-0.78,2.56-1.02,3.84c-0.08,0.56-0.16,1.16-0.24,1.8
		c-0.08,0.64-0.12,1.28-0.12,1.92c0,1.28,0.18,2.54,0.54,3.78c0.36,1.24,0.94,2.42,1.74,3.54c1.2,1.6,2.72,2.76,4.57,3.48
		c1.84,0.72,3.76,1.2,5.76,1.44c0.48,0,0.96,0.02,1.44,0.06c0.48,0.04,0.96,0.06,1.44,0.06c7.37,0,13.15-2.14,17.36-6.43
		C679.85,149.24,683.4,144.06,686.28,137.97L686.28,137.97L686.28,137.97z M720.39,137.92c-0.72-0.4-1.42-0.74-2.1-1.02
		c-0.68-0.28-1.34-0.58-1.98-0.9c-0.32-0.16-0.66-0.32-1.02-0.48c-0.36-0.16-0.7-0.32-1.02-0.48c-0.8,1.77-1.66,3.45-2.58,5.06
		c-0.92,1.61-2.1,3.14-3.54,4.58c-1.04,0.96-2.04,1.71-3,2.23c-0.96,0.52-1.76,0.78-2.4,0.78c-0.88,0.08-1.5-0.04-1.86-0.36
		c-0.36-0.32-0.54-0.72-0.54-1.21c0-0.48,0.08-1.02,0.24-1.63c0.16-0.6,0.36-1.18,0.6-1.75c0.96-2.97,1.94-5.92,2.94-8.86
		c1-2.93,2.02-5.84,3.06-8.74c0.48-1.45,0.98-2.91,1.5-4.4c0.52-1.49,1.02-2.95,1.5-4.4c-1.92,0-3.86,0-5.83,0
		c-1.96,0-3.94,0-5.94,0c-2,0-3.99,0-5.95,0c-1.96,0-3.9,0-5.83,0c-1.28,3.69-2.54,7.37-3.78,11.02c-1.24,3.65-2.5,7.33-3.78,11.02
		c-0.16,0.48-0.3,0.94-0.42,1.39c-0.12,0.44-0.26,0.9-0.42,1.39c-0.24,0.96-0.42,1.91-0.54,2.83c-0.12,0.92-0.18,1.83-0.18,2.71
		c0,2.65,0.64,5.08,1.92,7.29c1.28,2.21,3.44,3.83,6.49,4.88c1.12,0.4,2.28,0.68,3.48,0.84c1.2,0.16,2.4,0.24,3.6,0.24
		c0.16,0,0.34,0,0.54,0c0.2,0,0.38,0,0.54,0c2.88-0.16,5.66-0.72,8.35-1.68c2.68-0.96,5.02-2.32,7.03-4.08
		c2.16-1.93,4-4.1,5.52-6.51c1.52-2.41,2.92-4.9,4.2-7.47c0.24-0.4,0.46-0.78,0.66-1.14C720.05,138.7,720.23,138.32,720.39,137.92
		L720.39,137.92L720.39,137.92z M714.63,105.54c0.08-0.32,0.14-0.62,0.18-0.9c0.04-0.28,0.06-0.54,0.06-0.78
		c0-1.84-0.7-3.4-2.1-4.68c-1.4-1.28-2.94-2.28-4.62-3c-0.16-0.08-0.36-0.16-0.6-0.24c-0.24-0.08-0.48-0.16-0.72-0.24
		c-0.8-0.24-1.64-0.42-2.52-0.54c-0.88-0.12-1.76-0.18-2.64-0.18c-0.24,0-0.46,0-0.66,0c-0.2,0-0.42,0-0.66,0
		c-1.92,0.16-3.78,0.6-5.59,1.32c-1.8,0.72-3.26,1.8-4.38,3.24c-0.4,0.56-0.72,1.16-0.96,1.8c-0.24,0.64-0.36,1.28-0.36,1.92
		c0,1.12,0.3,2.22,0.9,3.3c0.6,1.08,1.42,2.02,2.46,2.82c1.36,1.04,2.92,1.78,4.68,2.22c1.76,0.44,3.52,0.66,5.29,0.66
		c0.64,0,1.3-0.04,1.98-0.12c0.68-0.08,1.34-0.16,1.98-0.24c0.24-0.08,0.48-0.14,0.72-0.18c0.24-0.04,0.52-0.1,0.84-0.18
		c1.44-0.48,2.8-1.22,4.08-2.22C713.26,108.32,714.15,107.06,714.63,105.54L714.63,105.54L714.63,105.54z M778.89,116.35h-22.94
		l-0.84,2.4c-2-1.36-4.12-2.38-6.37-3.06c-2.24-0.68-4.53-1.02-6.85-1.02c-0.4,0-0.82,0.02-1.26,0.06
		c-0.44,0.04-0.86,0.06-1.26,0.06c-6.81,0.64-13.05,3.46-18.74,8.47c-5.69,5-8.53,10.99-8.53,17.96c0,6.01,1.96,10.59,5.88,13.75
		c3.92,3.16,8.45,4.74,13.57,4.74c0.56,0,1.12-0.02,1.68-0.06c0.56-0.04,1.12-0.1,1.68-0.18c1.12-0.16,2.26-0.38,3.42-0.66
		c1.16-0.28,2.26-0.66,3.3-1.14c-0.4,1.2-0.84,2.54-1.32,4.02c-0.48,1.48-1,2.98-1.56,4.51c-1.44,3.68-3.32,7.09-5.65,10.21
		c-2.32,3.12-5.57,4.64-9.73,4.56c-0.16,0-0.34-0.02-0.54-0.06c-0.2-0.04-0.38-0.1-0.54-0.18c-0.24,0-0.46-0.04-0.66-0.12
		c-0.2-0.08-0.38-0.16-0.54-0.24c2.16-0.72,3.74-1.82,4.74-3.3c1-1.48,1.5-3.02,1.5-4.62c0-0.08,0-0.14,0-0.18c0-0.04,0-0.1,0-0.18
		c-0.08-2.24-1-4.29-2.76-6.13c-1.76-1.84-4.08-2.76-6.97-2.76c-0.16,0-0.32,0-0.48,0c-0.16,0-0.32,0-0.48,0
		c-0.24,0-0.44,0.02-0.6,0.06c-0.16,0.04-0.32,0.06-0.48,0.06c-2.72,0.48-4.68,1.52-5.89,3.12c-1.2,1.6-1.84,3.4-1.92,5.4
		c0,0.4,0.02,0.78,0.06,1.14c0.04,0.36,0.1,0.74,0.18,1.14c0.32,1.84,1.06,3.64,2.22,5.41c1.16,1.76,2.66,3.16,4.5,4.2
		c2,1.2,4.18,2.08,6.55,2.64c2.36,0.56,4.78,0.84,7.27,0.84c0.72,0,1.46-0.02,2.22-0.06c0.76-0.04,1.54-0.1,2.34-0.18
		c6.09-0.8,11.87-2.96,17.36-6.49c5.48-3.53,9.15-8.01,10.99-13.45c1.44-4.25,2.88-8.47,4.32-12.67c1.44-4.2,2.92-8.43,4.45-12.67
		c1.44-4.16,2.88-8.37,4.32-12.61C776.01,124.84,777.45,120.59,778.89,116.35L778.89,116.35L778.89,116.35z M752.34,126.8
		c-0.48,1.36-1,3.06-1.56,5.1c-0.56,2.04-1.24,4.14-2.04,6.31c-1.2,3.52-2.82,6.73-4.86,9.61c-2.04,2.88-4.7,4.32-7.99,4.32
		c-0.56,0-1.02-0.14-1.38-0.42c-0.36-0.28-0.7-0.7-1.02-1.26c-0.16-0.4-0.3-0.88-0.42-1.44c-0.12-0.56-0.18-1.12-0.18-1.68
		c0-1.36,0.22-2.9,0.66-4.62c0.44-1.72,1.06-3.46,1.86-5.22c1.04-2.48,2.34-4.88,3.9-7.21c1.56-2.32,3.14-4.21,4.75-5.65
		c0.8-0.64,1.6-1.16,2.4-1.56c0.8-0.4,1.56-0.6,2.28-0.6c0.16,0,0.3,0,0.42,0c0.12,0,0.26,0.04,0.42,0.12c0.08,0,0.2,0.02,0.36,0.06
		c0.16,0.04,0.28,0.1,0.36,0.18c0.64,0.24,1.1,0.62,1.38,1.14c0.28,0.52,0.46,1.06,0.54,1.62c0.08,0.16,0.12,0.36,0.12,0.6
		C752.34,126.44,752.34,126.64,752.34,126.8L752.34,126.8L752.34,126.8z"/>
	<path class="st0" d="M316.4,49.88c14.79-5.28,22.09-10.76,21.88-19.57c-0.25-10.36-12-18.35-26-17.87
		c-14,0.49-25.05,9.28-24.69,19.64C287.95,42.44,303.21,54.58,316.4,49.88L316.4,49.88z"/>
	<g>
		<defs>
			<rect id="SVGID_1_" x="-30.61" width="841.89" height="240.95"/>
		</defs>
		<clipPath id="SVGID_00000160182221278727471210000011141115442898144935_">
			<use xlink:href="#SVGID_1_"  style="overflow:visible;"/>
		</clipPath>
		
			<path style="clip-path:url(#SVGID_00000160182221278727471210000011141115442898144935_);fill:none;stroke:#000000;stroke-width:5.3386;" d="
			M426.74,139.48c-4.02,0-8.33,0.15-12.92,0.43l-121.44,12.92c-10.34,1.15-19.02,3.16-26.05,6.03c-7.03,2.88-10.55,5.89-10.55,9.05
			c0,5.17,8.61,7.76,25.84,7.76c4.31,0,8.75-0.14,13.35-0.43l121.01-12.93c10.62-1.14,19.45-3.16,26.48-6.03
			c7.03-2.87,10.55-5.88,10.55-9.05C453.01,142.07,444.25,139.48,426.74,139.48L426.74,139.48L426.74,139.48z M356.98,86.92
			l11.2-37.48c-8.33-4.59-12.49-11.05-12.49-19.39c0-6.31,2.65-11.77,7.97-16.37c5.31-4.59,11.55-6.89,18.73-6.89
			c7.46,0,13.78,2.3,18.95,6.89c5.17,4.6,7.75,10.06,7.75,16.37c0,6.32-2.58,11.71-7.75,16.16c-5.17,4.46-11.49,6.68-18.95,6.68
			l15.5,34.04l34.88-39.64c-4.88-4.59-7.32-10.19-7.32-16.8c0-6.03,2.29-11.13,6.89-15.3c4.59-4.16,10.19-6.25,16.8-6.25
			c6.31,0,11.77,2.09,16.36,6.25c4.59,4.17,6.89,9.26,6.89,15.3c0,6.03-2.3,11.2-6.89,15.51c-4.59,4.31-10.05,6.46-16.36,6.46
			l-7.75,79.28c-8.04-1.43-17.8-2.16-29.28-2.16c-21.53,0-46.51,2.3-74.93,6.89c-26.13,4.03-48.09,8.62-65.89,13.79l-29.71-79.28
			c-7.17,0-13.28-1.79-18.3-5.39c-5.02-3.59-7.54-7.82-7.54-12.71c0-4.88,2.58-9.12,7.75-12.71c5.17-3.59,11.49-5.39,18.95-5.39
			c7.18,0,13.42,1.8,18.73,5.39c5.32,3.59,7.97,7.83,7.97,12.71c0,6.61-4.16,11.63-12.49,15.08l33.59,27.57l21.96-43.08
			c-7.18,0-13.5-2.08-18.95-6.25c-5.46-4.16-8.18-8.97-8.18-14.43c0-5.17,2.65-9.69,7.97-13.57c5.31-3.88,11.7-5.82,19.16-5.82
			c7.75,0,14.28,1.94,19.59,5.82c5.31,3.88,7.97,8.4,7.97,13.57c0,6.03-3.45,11.06-10.34,15.08l26.27,35.33L356.98,86.92
			L356.98,86.92z"/>
	</g>
	<path class="st2" d="M781.94,109.9c5.87,0,10.62-4.76,10.62-10.62c0-5.87-4.76-10.62-10.62-10.62c-5.87,0-10.63,4.76-10.63,10.62
		C771.31,105.14,776.07,109.9,781.94,109.9L781.94,109.9z"/>
	<path d="M779.68,104.25v-4.42h1.53c0.34,0,0.58,0.02,0.73,0.05c0.2,0.05,0.4,0.14,0.6,0.26c0.2,0.13,0.42,0.35,0.67,0.66
		c0.25,0.32,0.57,0.77,0.95,1.37l1.32,2.07h1.66l-1.73-2.71c-0.34-0.53-0.71-0.97-1.09-1.32c-0.18-0.16-0.45-0.33-0.79-0.49
		c0.95-0.13,1.66-0.44,2.12-0.92c0.46-0.48,0.68-1.08,0.68-1.78c0-0.55-0.14-1.05-0.41-1.5c-0.28-0.45-0.64-0.77-1.11-0.95
		c-0.46-0.18-1.13-0.27-2.02-0.27h-4.41v9.94H779.68L779.68,104.25z M779.68,95.41h3.15c0.74,0,1.28,0.15,1.62,0.45
		c0.34,0.3,0.51,0.69,0.51,1.16c0,0.32-0.09,0.62-0.26,0.89c-0.18,0.27-0.43,0.47-0.77,0.6c-0.34,0.12-0.81,0.19-1.41,0.19h-2.83
		V95.41L779.68,95.41z"/>
</g>
<g>
	<path class="st3" d="M26.25,245.61c-2.97,0-5.61-1.48-7.92-4.43s-3.47-6.02-3.47-9.19c0-3.75,1.14-8.03,3.43-12.84
		c2.28-4.81,5.26-8.73,8.94-11.77s7.5-4.55,11.47-4.55c3.04,0,5.58,0.38,7.6,1.13s3.84,1.83,5.46,3.25s2.69,2.86,3.23,4.34
		c0.54,1.49,0.81,3.56,0.81,6.24c0,2.53-0.76,5.48-2.28,8.86c-1.52,3.38-3.9,6.68-7.12,9.89c-3.22,3.21-6.27,5.53-9.15,6.95
		C34.37,244.9,30.7,245.61,26.25,245.61z M19.95,231.74c0,2.58,0.82,4.75,2.45,6.52c1.63,1.76,3.53,2.65,5.68,2.65
		c5.61,0,10.76-2.58,15.46-7.74c4.7-5.16,7.05-10.64,7.05-16.43c0-2.21-0.43-3.95-1.29-5.22s-2.25-2.36-4.16-3.26
		c-1.91-0.9-4.06-1.35-6.43-1.35c-4.16,0-8.32,2.82-12.49,8.47C22.04,221.01,19.95,226.47,19.95,231.74z"/>
	<path class="st3" d="M75.02,196.45c1.34,0,2.01,0.85,2.01,2.56c0,1.52-0.81,5.14-2.42,10.86c-1.02,3.6-1.81,7.58-2.37,11.92
		s-0.84,7.75-0.84,10.22c0,3.06,0.19,6.11,0.58,9.13c0.07,0.58,0.11,0.99,0.11,1.25c0,0.93-0.32,1.73-0.95,2.39
		c-0.63,0.67-1.3,1-2.01,1c-0.98,0-1.67-0.61-2.05-1.84s-0.57-3.2-0.57-5.93c0-6.22,0.75-13.93,2.24-23.12
		c1.49-9.19,2.68-14.57,3.56-16.13C73.22,197.23,74.11,196.45,75.02,196.45z"/>
	<path class="st3" d="M104.36,233.47c-2.6,3.49-5.17,6.11-7.71,7.85c-2.54,1.75-4.87,2.62-6.99,2.62c-1.43,0-2.66-0.6-3.7-1.81
		c-1.04-1.21-1.56-2.76-1.56-4.65c0-4.88,2.18-10.14,6.54-15.78c4.36-5.63,8.7-8.45,13.01-8.45c1.56,0,2.72,0.89,3.48,2.67
		c0.24,0.59,0.62,0.89,1.14,0.89c1.49,0,2.23,0.58,2.23,1.73c0,0.58-0.09,1.37-0.28,2.37c-1,5.48-1.5,9.34-1.5,11.59
		c0,4.49,0.85,7.19,2.56,8.08c0.82,0.45,1.23,0.99,1.23,1.64c0,0.58-0.4,1.16-1.2,1.74c-0.8,0.58-1.57,0.88-2.31,0.88
		c-1.43,0-2.61-0.98-3.54-2.95C104.83,239.91,104.36,237.11,104.36,233.47z M102.66,217.79c-2.45,0-5.3,2.3-8.55,6.89
		c-3.25,4.6-4.87,8.41-4.87,11.43c0,2.14,0.71,3.2,2.12,3.2c2.04,0,4.87-2.06,8.5-6.18c3.62-4.12,5.43-7.91,5.43-11.36
		C105.28,219.11,104.41,217.79,102.66,217.79z"/>
	<path class="st3" d="M130.66,245.19c-2.79,0-4.93-0.8-6.42-2.4s-2.24-3.83-2.24-6.71c0-4.85,1.92-9.96,5.77-15.33
		c3.84-5.38,7.42-8.06,10.72-8.06c1.5,0,2.8,0.81,3.89,2.44c1.09,1.62,1.63,3.35,1.63,5.17c0,1.1-0.24,2.04-0.71,2.83
		c-0.47,0.79-0.95,1.18-1.43,1.18c-1.08,0-1.84-1.09-2.28-3.26c-0.5-2.34-1.23-3.51-2.17-3.51c-1.93,0-4.22,2.29-6.85,6.88
		c-2.64,4.59-3.96,8.46-3.96,11.61s1.79,4.73,5.38,4.73c2.73,0,5.94-1.28,9.64-3.84c1.3-0.91,2.26-1.36,2.87-1.36
		c0.63,0,0.95,0.36,0.95,1.09c0,1.41-1.66,3.19-4.99,5.33C137.12,244.12,133.86,245.19,130.66,245.19z"/>
	<path class="st3" d="M174.73,233.47c-2.6,3.49-5.17,6.11-7.71,7.85c-2.54,1.75-4.87,2.62-6.99,2.62c-1.43,0-2.66-0.6-3.7-1.81
		c-1.04-1.21-1.56-2.76-1.56-4.65c0-4.88,2.18-10.14,6.54-15.78c4.36-5.63,8.7-8.45,13.01-8.45c1.56,0,2.72,0.89,3.48,2.67
		c0.24,0.59,0.62,0.89,1.14,0.89c1.49,0,2.23,0.58,2.23,1.73c0,0.58-0.09,1.37-0.28,2.37c-1,5.48-1.5,9.34-1.5,11.59
		c0,4.49,0.85,7.19,2.56,8.08c0.82,0.45,1.23,0.99,1.23,1.64c0,0.58-0.4,1.16-1.2,1.74c-0.8,0.58-1.57,0.88-2.31,0.88
		c-1.43,0-2.61-0.98-3.54-2.95C175.2,239.91,174.73,237.11,174.73,233.47z M173.04,217.79c-2.45,0-5.3,2.3-8.55,6.89
		c-3.25,4.6-4.87,8.41-4.87,11.43c0,2.14,0.71,3.2,2.12,3.2c2.04,0,4.87-2.06,8.5-6.18c3.62-4.12,5.43-7.91,5.43-11.36
		C175.65,219.11,174.78,217.79,173.04,217.79z"/>
	<path class="st3" d="M198.84,230.6c0.24-0.32,1.9-1.81,4.99-4.48c2.92-2.54,4.95-4.39,6.1-5.54c4.29-4.29,7.37-6.43,9.25-6.43
		c1.45,0,2.17,0.7,2.17,2.09c0,1.58-0.71,2.74-2.14,3.48c-1.86,0.95-4.34,2.52-7.44,4.72c-3.1,2.2-4.65,3.76-4.65,4.67
		c0,0.37,1.1,1.76,3.29,4.16s4.08,4.18,5.68,5.32c1.6,1.14,3.15,1.71,4.65,1.71l0.92-0.03c0.65-0.04,0.98,0.25,0.98,0.86
		c0,0.82-0.51,1.65-1.53,2.49c-1.02,0.84-2.37,1.27-4.04,1.27c-1.08,0-2.17-0.38-3.27-1.13c-1.1-0.75-3.07-2.78-5.89-6.09
		c-2.25-2.73-3.65-4.36-4.21-4.89s-1.02-0.79-1.39-0.79c-0.2,0-0.85,0.48-1.95,1.45c-1.1,0.97-1.69,1.7-1.8,2.2
		c-0.1,0.5-0.15,2.41-0.15,5.74v1.31c0,0.69-0.32,1.3-0.97,1.84c-0.65,0.54-1.36,0.81-2.12,0.81c-0.78,0-1.39-0.23-1.84-0.68
		c-0.45-0.46-0.67-0.92-0.67-1.41c0-0.67,0.25-2.25,0.75-4.73c0.71-3.58,1.36-8.38,1.95-14.4c1.37-14.2,2.43-22.24,3.18-24.11
		c0.74-1.87,1.8-2.8,3.17-2.8c0.48,0,0.89,0.26,1.21,0.78c0.32,0.52,0.49,1.19,0.49,2c0,1.49-0.64,5.43-1.92,11.84
		C200.34,218.25,199.41,224.51,198.84,230.6z"/>
	<path class="st3" d="M245.16,237.23c0-1.21-1.49-2.58-4.46-4.12c-3.77-1.93-6.32-3.48-7.65-4.64c-1.33-1.16-1.99-2.46-1.99-3.88
		c0-3.69,1.85-6.76,5.56-9.19c3.7-2.43,6.73-3.65,9.07-3.65c1.5,0,2.59,0.26,3.27,0.78s1.02,1.42,1.02,2.7
		c0,0.58-0.25,1.07-0.74,1.48c-0.49,0.41-0.88,0.61-1.16,0.61c-0.2,0-0.6-0.14-1.2-0.42c-0.59-0.26-0.98-0.39-1.17-0.39
		c-0.93,0-2.81,0.68-5.65,2.03s-4.26,2.89-4.26,4.6c0,1.04,0.5,1.98,1.5,2.83s2.8,1.88,5.4,3.11c2.1,1,3.77,2.07,5.03,3.22
		c1.25,1.14,1.88,2.48,1.88,4.02c0,2.84-1.96,5.06-5.88,6.67c-3.92,1.61-7.66,2.41-11.22,2.41c-3.01,0-4.51-1.02-4.51-3.06
		c0-0.71,0.34-1.23,1.02-1.56c0.68-0.33,1.36-0.5,2.05-0.5c0.28,0,0.81,0.09,1.59,0.28c0.76,0.19,1.26,0.28,1.5,0.28
		c2.06,0,4.27-0.34,6.63-1.03C243.15,239.1,244.61,238.25,245.16,237.23z"/>
	<path class="st3" d="M278.12,233.47c-2.6,3.49-5.17,6.11-7.71,7.85c-2.54,1.75-4.87,2.62-6.99,2.62c-1.43,0-2.66-0.6-3.7-1.81
		c-1.04-1.21-1.56-2.76-1.56-4.65c0-4.88,2.18-10.14,6.54-15.78c4.36-5.63,8.7-8.45,13.01-8.45c1.56,0,2.72,0.89,3.48,2.67
		c0.24,0.59,0.62,0.89,1.14,0.89c1.49,0,2.23,0.58,2.23,1.73c0,0.58-0.09,1.37-0.28,2.37c-1,5.48-1.5,9.34-1.5,11.59
		c0,4.49,0.85,7.19,2.56,8.08c0.82,0.45,1.23,0.99,1.23,1.64c0,0.58-0.4,1.16-1.2,1.74c-0.8,0.58-1.57,0.88-2.31,0.88
		c-1.43,0-2.61-0.98-3.54-2.95C278.58,239.91,278.12,237.11,278.12,233.47z M276.42,217.79c-2.45,0-5.3,2.3-8.55,6.89
		c-3.25,4.6-4.87,8.41-4.87,11.43c0,2.14,0.71,3.2,2.12,3.2c2.04,0,4.87-2.06,8.5-6.18c3.62-4.12,5.43-7.91,5.43-11.36
		C279.04,219.11,278.17,217.79,276.42,217.79z"/>
	<path class="st3" d="M347.46,234.16c0,1.89-1.68,4.18-5.03,6.85c-3.35,2.67-6.81,4.01-10.38,4.01c-2.99,0-5.3-0.88-6.92-2.65
		c-1.62-1.76-2.44-4.22-2.44-7.38c0-5.31,1.79-10.36,5.38-15.15c3.58-4.79,7.5-7.19,11.75-7.19c1.39,0,2.53,0.46,3.41,1.37
		c0.88,0.91,1.32,2,1.32,3.29c0,2.86-1.4,5.6-4.21,8.22c-2.8,2.62-6.55,5.19-11.25,7.71c-0.97,0.5-1.45,1.15-1.45,1.95
		c0,1.54,0.45,2.78,1.34,3.7c0.89,0.93,2.21,1.39,3.96,1.39c3.99,0,8.07-2.21,12.23-6.63c0.61-0.61,1.08-0.92,1.39-0.92
		C347.17,232.74,347.46,233.22,347.46,234.16z M328.11,229.82c7.87-4.68,11.81-8.44,11.81-11.28c0-1.11-0.5-1.67-1.5-1.67
		c-1.71,0-3.63,1.25-5.78,3.76S328.98,226.2,328.11,229.82z"/>
	<path class="st3" d="M376.24,222.19c-0.97,0-2.02,0.63-3.16,1.89c-1.14,1.26-2.88,4.09-5.22,8.49c-3.08,5.9-5.07,9.27-5.97,10.08
		c-0.9,0.82-1.65,1.23-2.24,1.23c-2.19,0-3.29-1.06-3.29-3.17c0-0.89,0.15-2.15,0.45-3.79c1.02-5.61,1.53-11.52,1.53-17.74
		c0-0.71,0.3-1.49,0.91-2.35c0.6-0.86,1.17-1.29,1.71-1.29c0.96,0,1.65,0.3,2.06,0.89c0.41,0.59,0.61,1.79,0.61,3.59
		c0,1.88-0.56,5.74-1.67,11.59c-0.37,1.93-0.56,3.16-0.56,3.68c0,0.3,0.07,0.45,0.22,0.45c0.28,0,1.57-2.22,3.87-6.66
		c2.32-4.51,4.35-7.69,6.1-9.53c1.75-1.84,3.67-2.76,5.77-2.76c1.67,0,3.03,0.76,4.08,2.28c1.05,1.52,1.81,4.3,2.3,8.33
		c0.52,4.59,0.99,7.44,1.41,8.56c0.42,1.12,1.08,1.69,1.99,1.69c0.58,0,1.3-0.2,2.17-0.61c0.15-0.07,0.26-0.11,0.33-0.11
		c0.8,0,1.2,0.46,1.2,1.39c0,0.82-0.55,1.69-1.64,2.6s-2.41,1.38-3.95,1.38c-1.58,0-2.8-0.63-3.66-1.88
		c-0.86-1.25-1.55-4.6-2.05-10.04C379.01,224.92,377.91,222.19,376.24,222.19z"/>
	<path class="st3" d="M431.21,237.42c0,1.41,0.19,3,0.58,4.76c0.07,0.33,0.11,0.61,0.11,0.84c0,0.33-0.31,0.77-0.92,1.29
		c-0.61,0.53-1.26,0.79-1.95,0.79c-1.8,0-2.7-1.65-2.7-4.96c0-3.42,0.71-8.82,2.12-16.21c0.48-2.58,0.72-4.17,0.72-4.76
		c0-1.17,0.21-2.17,0.64-2.99c0.43-0.83,1.03-1.24,1.81-1.24c0.95,0,1.69,0.23,2.24,0.68s0.82,0.96,0.82,1.52
		c0,0.56-0.13,1.29-0.39,2.2c-1.39,4.9-2.26,8.41-2.59,10.53C431.38,231.99,431.21,234.51,431.21,237.42z M434.86,206.31
		c-0.39,0-0.69-0.42-0.89-1.25c-0.07-0.26-0.18-0.55-0.31-0.86c-0.5-1.21-0.75-2.26-0.75-3.15c0-0.74,0.44-1.5,1.32-2.27
		c0.88-0.77,1.86-1.16,2.94-1.16c0.54,0,1.14,0.21,1.81,0.63c0.67,0.42,1,0.82,1,1.21c0,0.61-0.23,1.65-0.68,3.12
		c-0.46,1.47-1.18,2.46-2.17,2.97S435.38,206.31,434.86,206.31z"/>
	<path class="st3" d="M466.96,233.77c-3.42,2.97-6.42,5.13-9.01,6.48c-2.59,1.35-4.57,2.02-5.95,2.02c-1.84,0-3.24-0.77-4.22-2.3
		c-0.98-1.53-1.46-3.32-1.46-5.36c0-2.86,0.58-6.39,1.74-10.6c1.16-4.21,2.02-6.7,2.59-7.49c0.57-0.79,1.47-1.18,2.72-1.18
		c0.52,0,0.95,0.31,1.28,0.92c0.33,0.61,0.5,1.31,0.5,2.09c0,0.46-0.21,1.07-0.64,1.81c-1,1.75-1.53,2.71-1.57,2.9
		c-0.05,0.19-0.4,1.3-1.07,3.36c-0.67,2.05-1,3.98-1,5.78c0,0.63,0.15,1.62,0.46,2.95c0.31,1.34,0.94,2,1.91,2
		c1.02,0,2.28-0.31,3.77-0.93c1.49-0.62,3.18-1.64,5.05-3.05s3.14-2.55,3.79-3.43c0.65-0.87,1.11-1.87,1.38-2.98
		c0.27-1.11,0.46-3.53,0.57-7.24c0.11-3.71,1.01-5.57,2.7-5.57c1,0,1.65,0.26,1.95,0.79s0.45,1.54,0.45,3.02
		c0,1.22-0.08,2.76-0.25,4.59c-0.21,2.32-0.33,3.97-0.39,4.96c-0.26,5.11-0.92,10.24-1.99,15.39c-1.07,5.15-2.62,9.46-4.67,12.92
		s-4.86,5.19-8.44,5.19c-3.64,0-6.88-0.95-9.71-2.85c-2.83-1.9-4.25-3.51-4.25-4.83c0-0.61,0.14-1.22,0.43-1.81
		c0.29-0.59,0.65-0.89,1.1-0.89c0.22,0,0.46,0.18,0.72,0.53c2.43,3.73,6.26,5.6,11.47,5.6c2.69,0,4.95-2.36,6.78-7.09
		c1.83-4.73,2.84-9.16,3.02-13.3C466.77,235.37,466.85,234.57,466.96,233.77z"/>
	<path class="st3" d="M489.39,237.42c0,1.41,0.2,3,0.58,4.76c0.07,0.33,0.11,0.61,0.11,0.84c0,0.33-0.31,0.77-0.92,1.29
		c-0.61,0.53-1.26,0.79-1.95,0.79c-1.8,0-2.7-1.65-2.7-4.96c0-3.42,0.71-8.82,2.12-16.21c0.48-2.58,0.72-4.17,0.72-4.76
		c0-1.17,0.21-2.17,0.64-2.99c0.43-0.83,1.03-1.24,1.81-1.24c0.95,0,1.69,0.23,2.24,0.68s0.82,0.96,0.82,1.52
		c0,0.56-0.13,1.29-0.39,2.2c-1.39,4.9-2.26,8.41-2.59,10.53C489.56,231.99,489.39,234.51,489.39,237.42z M493.04,206.31
		c-0.39,0-0.69-0.42-0.89-1.25c-0.07-0.26-0.18-0.55-0.31-0.86c-0.5-1.21-0.75-2.26-0.75-3.15c0-0.74,0.44-1.5,1.32-2.27
		c0.88-0.77,1.86-1.16,2.94-1.16c0.54,0,1.14,0.21,1.81,0.63c0.67,0.42,1,0.82,1,1.21c0,0.61-0.23,1.65-0.68,3.12
		c-0.46,1.47-1.18,2.46-2.17,2.97S493.56,206.31,493.04,206.31z"/>
	<path class="st3" d="M518.56,237.23c0-1.21-1.49-2.58-4.46-4.12c-3.77-1.93-6.32-3.48-7.64-4.64c-1.33-1.16-1.99-2.46-1.99-3.88
		c0-3.69,1.85-6.76,5.56-9.19c3.7-2.43,6.73-3.65,9.07-3.65c1.5,0,2.59,0.26,3.27,0.78c0.68,0.52,1.02,1.42,1.02,2.7
		c0,0.58-0.25,1.07-0.74,1.48c-0.49,0.41-0.88,0.61-1.16,0.61c-0.2,0-0.6-0.14-1.2-0.42c-0.59-0.26-0.98-0.39-1.17-0.39
		c-0.93,0-2.81,0.68-5.65,2.03c-2.84,1.36-4.26,2.89-4.26,4.6c0,1.04,0.5,1.98,1.5,2.83s2.8,1.88,5.4,3.11
		c2.1,1,3.77,2.07,5.03,3.22c1.25,1.14,1.88,2.48,1.88,4.02c0,2.84-1.96,5.06-5.88,6.67c-3.92,1.61-7.66,2.41-11.22,2.41
		c-3.01,0-4.51-1.02-4.51-3.06c0-0.71,0.34-1.23,1.02-1.56s1.36-0.5,2.05-0.5c0.28,0,0.81,0.09,1.59,0.28
		c0.76,0.19,1.26,0.28,1.5,0.28c2.06,0,4.27-0.34,6.63-1.03C516.54,239.1,518,238.25,518.56,237.23z"/>
	<path class="st3" d="M538.06,237.42c0,1.41,0.2,3,0.58,4.76c0.07,0.33,0.11,0.61,0.11,0.84c0,0.33-0.31,0.77-0.92,1.29
		c-0.61,0.53-1.26,0.79-1.95,0.79c-1.8,0-2.7-1.65-2.7-4.96c0-3.42,0.71-8.82,2.12-16.21c0.48-2.58,0.72-4.17,0.72-4.76
		c0-1.17,0.21-2.17,0.64-2.99c0.43-0.83,1.03-1.24,1.81-1.24c0.95,0,1.69,0.23,2.24,0.68s0.82,0.96,0.82,1.52
		c0,0.56-0.13,1.29-0.39,2.2c-1.39,4.9-2.26,8.41-2.59,10.53C538.23,231.99,538.06,234.51,538.06,237.42z M541.71,206.31
		c-0.39,0-0.69-0.42-0.89-1.25c-0.07-0.26-0.18-0.55-0.31-0.86c-0.5-1.21-0.75-2.26-0.75-3.15c0-0.74,0.44-1.5,1.32-2.27
		c0.88-0.77,1.86-1.16,2.94-1.16c0.54,0,1.14,0.21,1.81,0.63c0.67,0.42,1,0.82,1,1.21c0,0.61-0.23,1.65-0.68,3.12
		c-0.46,1.47-1.18,2.46-2.17,2.97S542.23,206.31,541.71,206.31z"/>
	<path class="st3" d="M588.16,245c-2.54,0-4.64-0.97-6.29-2.9s-2.48-4.32-2.48-7.16c0-4.79,1.61-9.51,4.83-14.16
		s7.08-6.98,11.57-6.98c2.97,0,5.38,1.14,7.23,3.43c1.85,2.28,2.77,5,2.77,8.16c0,4.83-1.91,9.3-5.72,13.42S592.28,245,588.16,245z
		 M584.29,234.22c0,1.88,0.39,3.41,1.18,4.6c0.79,1.19,1.83,1.78,3.13,1.78c2.77,0,5.54-1.52,8.33-4.55s4.18-6.41,4.18-10.12
		c0-2.28-0.53-4.14-1.6-5.56c-1.07-1.42-2.5-2.13-4.3-2.13c-2.99,0-5.56,1.83-7.7,5.5S584.29,230.89,584.29,234.22z"/>
	<path class="st3" d="M626.02,196.45c1.34,0,2.01,0.85,2.01,2.56c0,1.52-0.81,5.14-2.42,10.86c-1.02,3.6-1.81,7.58-2.37,11.92
		s-0.83,7.75-0.83,10.22c0,3.06,0.19,6.11,0.58,9.13c0.07,0.58,0.11,0.99,0.11,1.25c0,0.93-0.32,1.73-0.95,2.39
		c-0.63,0.67-1.3,1-2.01,1c-0.98,0-1.67-0.61-2.05-1.84s-0.57-3.2-0.57-5.93c0-6.22,0.75-13.93,2.24-23.12
		c1.5-9.19,2.68-14.57,3.57-16.13C624.22,197.23,625.11,196.45,626.02,196.45z"/>
	<path class="st3" d="M650.6,237.23c0-1.21-1.49-2.58-4.46-4.12c-3.77-1.93-6.32-3.48-7.64-4.64c-1.33-1.16-1.99-2.46-1.99-3.88
		c0-3.69,1.85-6.76,5.56-9.19c3.7-2.43,6.73-3.65,9.07-3.65c1.5,0,2.59,0.26,3.27,0.78c0.68,0.52,1.02,1.42,1.02,2.7
		c0,0.58-0.25,1.07-0.74,1.48c-0.49,0.41-0.88,0.61-1.16,0.61c-0.2,0-0.6-0.14-1.2-0.42c-0.59-0.26-0.98-0.39-1.17-0.39
		c-0.93,0-2.81,0.68-5.65,2.03c-2.84,1.36-4.26,2.89-4.26,4.6c0,1.04,0.5,1.98,1.5,2.83s2.8,1.88,5.4,3.11
		c2.1,1,3.77,2.07,5.03,3.22c1.25,1.14,1.88,2.48,1.88,4.02c0,2.84-1.96,5.06-5.88,6.67c-3.92,1.61-7.66,2.41-11.22,2.41
		c-3.01,0-4.51-1.02-4.51-3.06c0-0.71,0.34-1.23,1.02-1.56s1.36-0.5,2.05-0.5c0.28,0,0.81,0.09,1.59,0.28
		c0.76,0.19,1.26,0.28,1.5,0.28c2.06,0,4.27-0.34,6.63-1.03C648.58,239.1,650.04,238.25,650.6,237.23z"/>
	<path class="st3" d="M684.45,231.49c-2.38,3.99-4.81,7.08-7.3,9.27c-2.49,2.19-4.8,3.29-6.93,3.29c-1.23,0-2.47-0.71-3.75-2.14
		c-1.27-1.43-1.91-3.63-1.91-6.6c0-2.43,0.58-6.02,1.75-10.75c0.98-3.95,1.48-6.73,1.48-8.33c0.54-1.11,1.38-1.67,2.54-1.67
		c0.78,0,1.4,0.27,1.87,0.82c0.46,0.55,0.7,1.12,0.7,1.71c0,1.3-0.46,3.15-1.36,5.54c-1.73,4.66-2.59,8.66-2.59,12
		c0,3.04,0.71,4.57,2.12,4.57c1.8,0,4.09-1.53,6.88-4.6c2.79-3.06,5.17-7.33,7.16-12.81c0.78-2.19,1.42-3.62,1.91-4.28
		c0.49-0.66,1.16-0.99,1.99-0.99c1.26,0,1.89,0.83,1.89,2.51c0,0.2-0.18,0.88-0.53,2.03c-1.11,4.07-1.67,7.91-1.67,11.53
		c0,4.34,0.71,7.16,2.14,8.44c0.74,0.69,1.11,1.24,1.11,1.67c0,0.52-0.38,0.99-1.13,1.42c-0.75,0.43-1.43,0.64-2.05,0.64
		c-1.3,0-2.35-0.97-3.15-2.9c-0.8-1.93-1.2-4.78-1.2-8.55v-0.92C684.42,232.11,684.43,231.8,684.45,231.49z"/>
	<path class="st3" d="M722.53,222.19c-0.97,0-2.02,0.63-3.16,1.89s-2.88,4.09-5.22,8.49c-3.08,5.9-5.07,9.27-5.97,10.08
		c-0.9,0.82-1.65,1.23-2.24,1.23c-2.19,0-3.29-1.06-3.29-3.17c0-0.89,0.15-2.15,0.45-3.79c1.02-5.61,1.53-11.52,1.53-17.74
		c0-0.71,0.3-1.49,0.91-2.35c0.6-0.86,1.17-1.29,1.71-1.29c0.96,0,1.65,0.3,2.06,0.89c0.41,0.59,0.61,1.79,0.61,3.59
		c0,1.88-0.56,5.74-1.67,11.59c-0.37,1.93-0.56,3.16-0.56,3.68c0,0.3,0.07,0.45,0.22,0.45c0.28,0,1.57-2.22,3.87-6.66
		c2.32-4.51,4.35-7.69,6.1-9.53s3.67-2.76,5.77-2.76c1.67,0,3.03,0.76,4.08,2.28s1.81,4.3,2.3,8.33c0.52,4.59,0.99,7.44,1.41,8.56
		c0.42,1.12,1.08,1.69,1.99,1.69c0.58,0,1.3-0.2,2.17-0.61c0.15-0.07,0.26-0.11,0.33-0.11c0.8,0,1.2,0.46,1.2,1.39
		c0,0.82-0.55,1.69-1.64,2.6c-1.1,0.92-2.41,1.38-3.96,1.38c-1.58,0-2.8-0.63-3.66-1.88c-0.86-1.25-1.55-4.6-2.05-10.04
		C725.3,224.92,724.2,222.19,722.53,222.19z"/>
	<path class="st4" d="M752.65,237.33c0,2.06-0.51,3.51-1.54,4.37c-1.03,0.85-1.92,1.28-2.67,1.28c-1.54,0-2.31-1.01-2.31-3.03
		c0-0.79,0.37-1.73,1.12-2.82c0.75-1.09,1.52-1.64,2.31-1.64c0.52,0,1.17,0.23,1.95,0.69C752.29,236.64,752.67,237.02,752.65,237.33
		z M752.65,228.07c-0.52,0-1.24-0.08-2.15-0.25c-0.92-0.17-1.54-0.37-1.87-0.62c-0.27-2.22,0.25-6.4,1.56-12.54
		c1.06-4.95,1.59-8.41,1.59-10.39c0-2.79,0.51-4.67,1.53-5.65c1.02-0.98,1.87-1.47,2.56-1.47c0.52,0,1.05,0.22,1.59,0.66
		c0.54,0.44,0.81,0.93,0.81,1.47c0,0.46-1.14,5.73-3.43,15.82c-0.96,4.22-1.46,7.46-1.5,9.7
		C753.3,226.25,753.07,227.34,752.65,228.07z"/>
</g>
</svg>
